<?xml version="1.0" standalone="no"?>
<!DOCTYPE svg PUBLIC "-//W3C//DTD SVG 20010904//EN"
 "http://www.w3.org/TR/2001/REC-SVG-20010904/DTD/svg10.dtd">
<svg version="1.0" xmlns="http://www.w3.org/2000/svg"
 width="458.000000pt" height="458.000000pt" viewBox="0 0 458.000000 458.000000"
 preserveAspectRatio="xMidYMid meet">
<metadata>
Created by potrace 1.11, written by Peter Selinger 2001-2013
</metadata>
<g transform="translate(0.000000,458.000000) scale(0.100000,-0.100000)"
fill="#000000" stroke="none">
<path d="M685 3286 c-124 -31 -243 -132 -285 -243 -31 -80 -37 -184 -15 -259
42 -146 111 -211 331 -313 87 -41 174 -84 192 -97 68 -45 109 -138 96 -220
-21 -145 -191 -236 -320 -173 -57 27 -110 88 -125 141 -6 24 -13 49 -15 56 -2
6 -19 12 -39 12 -41 0 -43 -9 -20 -87 20 -66 93 -148 160 -179 71 -33 180 -33
250 0 106 50 170 152 169 271 0 92 -30 160 -95 219 -49 44 -57 56 -39 56 23 0
101 -86 127 -139 37 -74 39 -190 6 -262 -96 -210 -361 -260 -523 -98 -41 41
-79 118 -87 174 l-6 46 -66 -3 -66 -3 2 -51 c6 -150 132 -312 290 -375 83 -33
262 -34 343 -1 112 45 219 151 260 259 35 88 39 227 10 312 -26 79 -78 159
-134 207 -22 20 -127 79 -233 130 -221 108 -235 121 -241 219 -3 50 0 65 20
94 36 53 71 74 132 79 93 8 152 -40 189 -150 6 -16 21 -18 116 -18 127 0 128
1 111 91 -30 157 -154 277 -320 309 -67 13 -112 12 -175 -4z"/>
<path d="M1427 3273 c-4 -3 -7 -42 -7 -85 l0 -79 337 2 337 2 15 -32 15 -32
-238 -238 c-219 -219 -237 -240 -227 -260 7 -11 15 -21 18 -21 3 0 4 3 0 6
-14 14 118 145 139 137 8 -3 22 1 31 8 12 10 15 10 9 2 -13 -22 5 -14 41 17
37 32 45 35 72 21 14 -8 46 18 180 153 l163 163 -61 121 -61 122 -378 0 c-208
0 -382 -3 -385 -7z m293 -647 c0 -2 -8 -10 -17 -17 -16 -13 -17 -12 -4 4 13
16 21 21 21 13z"/>
<path d="M2532 3258 c-9 -9 -12 -187 -12 -739 0 -400 3 -734 6 -743 5 -12 21
-16 75 -16 l69 0 0 755 0 755 -63 0 c-36 0 -68 -5 -75 -12z"/>
<path d="M2710 2516 l0 -756 308 2 307 3 0 110 0 110 -271 3 c-211 2 -274 5
-283 16 -8 9 -12 201 -13 637 l-3 624 -22 3 -23 3 0 -755z"/>
<path d="M3565 3258 c-3 -7 -4 -346 -3 -753 3 -695 4 -740 21 -743 16 -3 17
38 17 752 0 672 -2 756 -15 756 -9 0 -18 -6 -20 -12z"/>
<path d="M3640 2515 l0 -756 88 3 87 3 5 210 5 210 210 5 210 5 3 106 c2 80
-1 109 -11 117 -9 8 -83 13 -213 14 l-199 3 -3 289 c-2 203 1 293 9 302 9 11
69 14 283 16 l271 3 0 110 0 110 -372 3 -373 2 0 -755z"/>
<path d="M2065 2630 c2 -11 7 -25 10 -30 3 -6 1 -10 -6 -10 -9 0 -10 -3 -2
-11 14 -14 4 -61 -11 -52 -8 5 -8 3 0 -8 7 -8 10 -36 9 -62 -3 -36 3 -61 22
-98 29 -60 39 -139 24 -196 -27 -99 -119 -189 -220 -213 -41 -10 -59 -9 -103
4 -111 32 -181 117 -212 259 l-6 27 -102 0 -101 0 5 -74 c12 -187 162 -361
353 -411 167 -43 337 5 462 131 147 146 181 360 88 550 -36 73 -114 158 -183
197 -30 17 -31 17 -27 -3z"/>
<path d="M26 1444 c-9 -8 -16 -19 -16 -23 0 -10 22 -31 34 -31 5 0 1 6 -10 14
-18 14 -18 16 -1 33 14 15 21 16 37 5 27 -16 35 -15 20 3 -16 19 -44 19 -64
-1z"/>
<path d="M130 1390 l0 -70 38 2 c36 1 36 1 5 5 -29 4 -33 8 -33 33 0 24 5 29
28 33 l27 4 -27 2 c-23 1 -28 6 -28 25 0 20 6 25 33 29 31 4 31 4 -5 5 l-38 2
0 -70z"/>
<path d="M222 1393 l-2 -73 38 2 c36 1 36 1 5 5 l-32 4 -4 67 -3 67 -2 -72z"/>
<path d="M312 1388 c0 -40 3 -59 5 -41 3 26 9 33 31 36 l27 4 -27 2 c-24 1
-28 5 -28 30 0 26 4 30 33 34 31 4 31 4 -5 5 l-38 2 2 -72z"/>
<path d="M450 1440 c-24 -24 -26 -67 -4 -98 20 -28 56 -28 80 1 l19 22 -22
-19 c-29 -25 -70 -15 -79 19 -16 65 33 108 79 69 l22 -19 -19 23 c-24 27 -50
28 -76 2z"/>
<path d="M576 1438 c-32 -46 -8 -118 39 -118 28 0 55 34 55 70 0 36 -27 70
-55 70 -13 0 -31 -10 -39 -22z m68 -4 c31 -31 11 -104 -29 -104 -23 0 -45 30
-45 60 0 30 22 60 45 60 7 0 21 -7 29 -16z"/>
<path d="M702 1390 c2 -72 2 -73 5 -16 l4 60 40 -60 39 -59 -2 75 c-2 72 -2
73 -5 16 l-4 -60 -40 60 -39 59 2 -75z"/>
<path d="M826 1444 c-9 -8 -16 -19 -16 -23 0 -10 22 -31 34 -31 5 0 1 6 -10
14 -18 14 -18 16 -1 33 14 15 21 16 37 5 27 -16 35 -15 20 3 -16 19 -44 19
-64 -1z"/>
<path d="M940 1440 c-24 -24 -26 -67 -4 -98 20 -28 56 -28 80 1 l19 22 -22
-19 c-29 -25 -70 -15 -79 19 -16 65 33 108 79 69 l22 -19 -19 23 c-24 27 -50
28 -76 2z"/>
<path d="M1048 1453 c7 -3 12 -26 12 -63 0 -37 -5 -60 -12 -63 -7 -3 1 -5 17
-5 17 0 24 2 18 5 -8 3 -13 26 -13 63 0 37 5 60 13 63 6 3 -1 5 -18 5 -16 0
-24 -2 -17 -5z"/>
<path d="M1126 1438 c-32 -46 -8 -118 39 -118 28 0 55 34 55 70 0 36 -27 70
-55 70 -13 0 -31 -10 -39 -22z m68 -4 c31 -31 11 -104 -29 -104 -23 0 -45 30
-45 60 0 30 22 60 45 60 7 0 21 -7 29 -16z"/>
<path d="M1242 1408 c-2 -60 13 -88 47 -88 31 0 41 22 39 85 l-2 60 -3 -57
c-7 -105 -63 -107 -74 -2 l-6 59 -1 -57z"/>
<path d="M1372 1448 c-17 -17 -15 -33 6 -49 15 -12 16 -12 4 2 -26 34 15 67
47 37 11 -11 13 -10 9 2 -6 19 -49 25 -66 8z"/>
<path d="M1556 1444 c-9 -8 -16 -19 -16 -23 0 -10 22 -31 34 -31 5 0 1 6 -10
14 -18 14 -18 16 -1 33 14 15 21 16 37 5 27 -16 35 -15 20 3 -16 19 -44 19
-64 -1z"/>
<path d="M1660 1390 l0 -70 38 2 c36 1 36 1 5 5 -29 4 -33 8 -33 33 0 24 5 29
28 33 l27 4 -27 2 c-23 1 -28 6 -28 25 0 20 6 25 33 29 31 4 31 4 -5 5 l-38 2
0 -70z"/>
<path d="M1752 1393 l-2 -73 38 2 c36 1 36 1 5 5 l-32 4 -4 67 -3 67 -2 -72z"/>
<path d="M1832 1388 c0 -40 3 -59 5 -41 3 26 9 33 31 36 l27 4 -27 2 c-24 1
-28 5 -28 30 0 26 4 30 33 34 31 4 31 4 -5 5 l-38 2 2 -72z"/>
<path d="M1958 1453 c7 -3 12 -26 12 -63 0 -37 -5 -60 -12 -63 -7 -3 1 -5 17
-5 17 0 24 2 18 5 -8 3 -13 26 -13 63 0 37 5 60 13 63 6 3 -1 5 -18 5 -16 0
-24 -2 -17 -5z"/>
<path d="M2032 1390 c1 -72 1 -73 7 -21 6 54 6 54 20 28 8 -15 17 -27 21 -27
4 0 13 12 21 27 14 26 14 26 20 -28 6 -52 6 -51 7 21 l1 75 -20 -37 c-11 -21
-24 -38 -29 -38 -5 0 -18 17 -29 38 l-20 37 1 -75z"/>
<path d="M2161 1388 c1 -40 4 -61 6 -45 4 22 10 27 32 27 32 0 51 16 51 45 0
30 -19 45 -57 45 l-33 0 1 -72z m72 41 c16 -26 1 -49 -33 -49 -28 0 -30 3 -30
36 0 32 2 35 26 32 15 -2 32 -10 37 -19z"/>
<path d="M2271 1388 c1 -40 4 -61 6 -45 5 35 35 36 53 2 7 -14 15 -23 17 -21
3 2 -1 13 -9 25 -10 16 -10 23 0 33 15 15 16 50 0 66 -7 7 -25 12 -40 12 l-28
0 1 -72z m64 27 c0 -25 -4 -30 -27 -33 -26 -3 -28 -1 -28 33 0 34 2 36 28 33
23 -3 27 -8 27 -33z"/>
<path d="M2390 1440 c-39 -39 -12 -120 40 -120 29 0 60 36 60 70 0 34 -31 70
-60 70 -11 0 -29 -9 -40 -20z m72 -7 c33 -30 12 -103 -30 -103 -45 0 -68 66
-35 102 20 22 41 23 65 1z"/>
<path d="M2503 1450 c9 -37 42 -120 47 -120 3 0 15 29 27 65 12 36 18 63 13
60 -4 -2 -13 -25 -20 -50 -12 -42 -29 -61 -31 -32 0 6 -9 30 -20 52 -11 22
-18 33 -16 25z"/>
<path d="M2620 1390 l0 -70 38 2 c36 1 36 1 5 5 -29 4 -33 8 -33 33 0 24 5 29
28 33 l27 4 -27 2 c-23 1 -28 6 -28 25 0 20 6 25 33 29 31 4 31 4 -5 5 l-38 2
0 -70z"/>
<path d="M2712 1390 c1 -73 1 -74 7 -20 l6 55 20 -32 19 -33 21 33 20 32 6
-55 c6 -54 6 -53 7 20 l1 75 -23 -38 c-13 -21 -27 -38 -31 -38 -4 0 -18 17
-31 38 l-23 38 1 -75z"/>
<path d="M2850 1390 l0 -70 38 2 c36 1 36 1 5 5 -29 4 -33 8 -33 33 0 24 5 29
28 33 l27 4 -27 2 c-23 1 -28 6 -28 25 0 20 6 25 33 29 31 4 31 4 -5 5 l-38 2
0 -70z"/>
<path d="M2942 1390 c1 -74 1 -74 7 -20 l6 55 38 -55 37 -55 -2 75 c-1 74 -1
74 -7 20 l-6 -55 -37 55 -38 55 2 -75z"/>
<path d="M3067 1453 c20 -4 22 -12 26 -71 l3 -67 2 67 c2 60 4 67 25 71 12 2
0 4 -28 4 -27 0 -40 -2 -28 -4z"/>
<path d="M3226 1444 c-9 -8 -16 -19 -16 -23 0 -10 22 -31 34 -31 5 0 1 6 -10
14 -18 14 -18 16 -1 33 14 15 21 16 37 5 27 -16 35 -15 20 3 -16 19 -44 19
-64 -1z"/>
<path d="M3330 1390 l0 -70 38 2 c36 1 36 1 5 5 -29 4 -33 8 -33 33 0 24 5 29
28 33 l27 4 -27 2 c-23 1 -28 6 -28 25 0 20 6 25 33 29 31 4 31 4 -5 5 l-38 2
0 -70z"/>
<path d="M3422 1393 l-2 -73 38 2 c36 1 36 1 5 5 l-32 4 -4 67 -3 67 -2 -72z"/>
<path d="M3512 1388 c0 -40 3 -59 5 -41 3 26 9 33 31 36 l27 4 -27 2 c-24 1
-28 5 -28 30 0 26 4 30 33 34 31 4 31 4 -5 5 l-38 2 2 -72z"/>
<path d="M3640 1445 c-15 -18 -5 -46 21 -53 8 -3 7 1 -4 10 -11 8 -16 20 -11
31 7 20 34 22 53 5 11 -11 13 -10 9 2 -6 21 -52 24 -68 5z"/>
<path d="M3742 1412 c-2 -65 11 -92 43 -92 33 0 47 30 42 93 l-3 52 -2 -56
c-4 -106 -62 -108 -73 -3 l-6 59 -1 -53z"/>
<path d="M3862 1388 c0 -40 3 -59 5 -41 3 26 9 33 31 36 l27 4 -27 2 c-24 1
-28 5 -28 30 0 26 4 30 33 34 31 4 31 4 -5 5 l-38 2 2 -72z"/>
<path d="M3952 1388 c0 -40 3 -59 5 -41 3 26 9 33 31 36 l27 4 -27 2 c-24 1
-28 5 -28 30 0 26 4 30 33 34 31 4 31 4 -5 5 l-38 2 2 -72z"/>
<path d="M4038 1453 c7 -3 12 -26 12 -63 0 -37 -5 -60 -12 -63 -7 -3 1 -5 17
-5 17 0 24 2 18 5 -8 3 -13 26 -13 63 0 37 5 60 13 63 6 3 -1 5 -18 5 -16 0
-24 -2 -17 -5z"/>
<path d="M4110 1440 c-11 -11 -20 -33 -20 -50 0 -55 59 -89 94 -54 22 22 20
31 -2 11 -36 -33 -82 -9 -82 42 0 29 26 61 50 61 7 0 22 -7 32 -17 22 -20 24
-11 2 11 -21 22 -50 20 -74 -4z"/>
<path d="M4228 1453 c7 -3 12 -26 12 -63 0 -37 -5 -60 -12 -63 -7 -3 1 -5 17
-5 17 0 24 2 18 5 -8 3 -13 26 -13 63 0 37 5 60 13 63 6 3 -1 5 -18 5 -16 0
-24 -2 -17 -5z"/>
<path d="M4290 1390 l0 -70 38 2 c36 1 36 1 5 5 -29 4 -33 8 -33 33 0 25 4 29
33 33 l32 4 -32 1 c-28 2 -33 6 -33 26 0 20 6 25 33 29 31 4 31 4 -5 5 l-38 2
0 -70z"/>
<path d="M4382 1390 c1 -74 1 -74 7 -20 l6 55 38 -55 37 -55 -2 75 c-1 74 -1
74 -7 20 l-6 -55 -37 55 -38 55 2 -75z"/>
<path d="M4507 1453 c20 -4 22 -12 26 -71 l3 -67 2 67 c2 60 4 67 25 71 12 2
0 4 -28 4 -27 0 -40 -2 -28 -4z"/>
<path d="M88 1352 c-7 -25 -45 -31 -54 -7 -8 19 -24 20 -24 1 0 -15 21 -26 50
-26 21 0 44 24 38 42 -3 7 -7 2 -10 -10z"/>
<path d="M888 1352 c-8 -27 -52 -30 -67 -4 -9 15 -10 15 -11 1 0 -30 58 -40
80 -14 6 8 10 20 8 27 -3 7 -7 2 -10 -10z"/>
<path d="M1428 1352 c-7 -25 -45 -31 -54 -7 -8 19 -24 20 -24 1 0 -15 21 -26
50 -26 21 0 44 24 38 42 -3 7 -7 2 -10 -10z"/>
<path d="M1618 1352 c-8 -27 -52 -30 -67 -4 -9 15 -10 15 -11 1 0 -30 58 -40
80 -14 6 8 10 20 8 27 -3 7 -7 2 -10 -10z"/>
<path d="M3288 1352 c-7 -25 -45 -31 -54 -7 -8 19 -24 20 -24 1 0 -15 21 -26
50 -26 21 0 44 24 38 42 -3 7 -7 2 -10 -10z"/>
<path d="M3708 1352 c-8 -27 -52 -30 -67 -4 -9 15 -10 15 -11 1 0 -30 58 -40
80 -14 6 8 10 20 8 27 -3 7 -7 2 -10 -10z"/>
</g>
</svg>
